# xmcd
#
# Track frame offsets:
# 150
# 20015
# 36232
# 46005
# 55972
# 64310
# 86887
# 99782
# 112037
# 119812
# 145700
# 160370
# 180660
#
# Disc length: 2556 seconds
#
# Revision: 1
# Processed by: cddbd v1.5.1PL2 Copyright (c) Steve Scherf et al.
# Submitted via: Easy CD Ripper v2.34
#
DISCID=b709fa0d
DTITLE=COSTES - Nik Ta Race
DYEAR=2000
DGENRE=Blues
TTITLE0=Sperme Blanc
TTITLE1=Confrontation
TTITLE2=Negro n'est qu'un mot - part 1
TTITLE3=Negro n'est qu'un mot - part 2
TTITLE4=Negro n'est qu'un mot - part 3
TTITLE5=Enzo Gaspa
TTITLE6=Mort à l'Afrique! Mort à la France!
TTITLE7=Costes Le Raciste
TTITLE8=KKKU
TTITLE9=Zobi
TTITLE10=Sodomites Cosmopolites
TTITLE11=Louons l'Eternel
TTITLE12=Seule La Musique...
EXTD=explicit lyrics
EXTT0=
EXTT1=
EXTT2=
EXTT3=
EXTT4=
EXTT5=
EXTT6=
EXTT7=
EXTT8=
EXTT9=
EXTT10=
EXTT11=
EXTT12=
PLAYORDER=
